<svg width="89" height="30" viewBox="0 0 89 30" fill="none" xmlns="http://www.w3.org/2000/svg">
<path d="M3.12 14.48C5.09333 13.6 6.96 13.16 8.72 13.16C11.0133 13.16 12.1867 14.5067 12.24 17.2H8C5.84 17.2 4.09333 17.7333 2.76 18.8C1.45333 19.8667 0.8 21.3733 0.8 23.32C0.8 25.1867 1.37333 26.68 2.52 27.8C3.69333 28.92 5.4 29.48 7.64 29.48C8.6 29.48 9.56 29.2533 10.52 28.8C11.48 28.3467 12.3333 27.76 13.08 27.04L13.76 29H16.76V16.04C16.76 14.7333 16.4 13.56 15.68 12.52C14.96 11.4533 13.9733 10.6133 12.72 10C11.4933 9.38667 10.1333 9.08 8.64 9.08C7.73333 9.08 6.54667 9.25333 5.08 9.6C3.64 9.94667 2.57333 10.3467 1.88 10.8L3.12 14.48ZM4.72 23.32C4.72 22.44 5 21.7067 5.56 21.12C6.14667 20.5067 6.93333 20.2 7.92 20.2H12.28V23.68C11.6133 24.3733 10.8667 24.92 10.04 25.32C9.21333 25.72 8.38667 25.92 7.56 25.92C6.68 25.92 5.98667 25.6667 5.48 25.16C4.97333 24.6267 4.72 24.0133 4.72 23.32ZM25.7219 16.64C26.7885 15.68 27.9619 14.8667 29.2419 14.2C30.5219 13.5333 31.6419 13.2 32.6019 13.2L31.6819 9.6C30.7485 9.6 29.6552 9.93333 28.4019 10.6C27.1752 11.2667 26.0819 12 25.1219 12.8L23.6419 9.6H21.2419V29H25.7219V16.64ZM43.9844 9.08C45.9577 9.08 47.6777 9.50667 49.1444 10.36C50.611 11.1867 51.731 12.3733 52.5044 13.92C53.3044 15.4667 53.7044 17.28 53.7044 19.36C53.7044 21.36 53.3044 23.1333 52.5044 24.68C51.7044 26.2 50.5577 27.3867 49.0644 28.24C47.5977 29.0933 45.8777 29.52 43.9044 29.52C43.1844 29.52 42.371 29.36 41.4644 29.04C40.5844 28.72 39.7577 28.2933 38.9844 27.76L38.0644 29H35.7044V1.2L40.1844 0.759999V10.12C41.491 9.42667 42.7577 9.08 43.9844 9.08ZM43.9044 25.64C45.5044 25.64 46.7577 25.0533 47.6644 23.88C48.5977 22.7067 49.0644 21.2 49.0644 19.36C49.0644 17.44 48.611 15.8933 47.7044 14.72C46.7977 13.52 45.531 12.92 43.9044 12.92C43.211 12.92 42.5577 13.0267 41.9444 13.24C41.3577 13.4533 40.771 13.7733 40.1844 14.2V24.44C41.2777 25.24 42.5177 25.64 43.9044 25.64ZM74.0613 19.16C74.0613 16.2267 73.3279 13.8133 71.8613 11.92C70.3946 10.0267 68.2346 9.08 65.3813 9.08C63.4346 9.08 61.7413 9.50667 60.3013 10.36C58.8879 11.2133 57.7946 12.4133 57.0213 13.96C56.2746 15.48 55.9013 17.2533 55.9013 19.28C55.9013 22.4267 56.8213 24.92 58.6613 26.76C60.5279 28.5733 63.2213 29.48 66.7413 29.48C69.3546 29.48 71.7413 28.7333 73.9013 27.24L72.5413 23.96C71.3946 24.5467 70.4079 24.9867 69.5813 25.28C68.7813 25.5467 67.8613 25.68 66.8213 25.68C63.0879 25.68 61.0213 23.9467 60.6213 20.48H74.0613V19.16ZM60.7013 17.48C60.8879 16.04 61.3679 14.92 62.1413 14.12C62.9413 13.32 63.9813 12.92 65.2613 12.92C66.5146 12.92 67.5146 13.3067 68.2613 14.08C69.0079 14.8533 69.5013 15.9867 69.7413 17.48H60.7013ZM81.9328 16.64C82.9995 15.68 84.1728 14.8667 85.4528 14.2C86.7328 13.5333 87.8528 13.2 88.8128 13.2L87.8928 9.6C86.9595 9.6 85.8661 9.93333 84.6128 10.6C83.3861 11.2667 82.2928 12 81.3328 12.8L79.8528 9.6H77.4528V29H81.9328V16.64Z" fill="#99BAED"/>
</svg>
